PathFileType	4	(X/Y/Z)	 control3min.trc
DataRate	CameraRate	NumFrames	NumMarkers	Units	OrigDataRate	OrigDataStartFrame	OrigNumFrames
200	200	9	35	m	200	876	1000
Frame#	Time	C7			LSH			RSH			MAN			RASI			LASI			HIPR			HIPL			RPSI			LPSI			COX			RTHI1			RTHI2			RTHI3			RTHI4			RSHA1			RSHA2			RSHA3			RSHA4			RHEEL			RMET5			RMET1			RTOE			LTHI1			LTHI2			LTHI3			LTHI4			LSHA1			LSHA2			LSHA3			LSHA4			LHEEL			LMET5			LMET1			LTOE			
		X1	Y1	Z1	X2	Y2	Z2	X3	Y3	Z3	X4	Y4	Z4	X5	Y5	Z5	X6	Y6	Z6	X7	Y7	Z7	X8	Y8	Z8	X9	Y9	Z9	X10	Y10	Z10	X11	Y11	Z11	X12	Y12	Z12	X13	Y13	Z13	X14	Y14	Z14	X15	Y15	Z15	X16	Y16	Z16	X17	Y17	Z17	X18	Y18	Z18	X19	Y19	Z19	X20	Y20	Z20	X21	Y21	Z21	X22	Y22	Z22	X23	Y23	Z23	X24	Y24	Z24	X25	Y25	Z25	X26	Y26	Z26	X27	Y27	Z27	X28	Y28	Z28	X29	Y29	Z29	X30	Y30	Z30	X31	Y31	Z31	X32	Y32	Z32	X33	Y33	Z33	X34	Y34	Z34	X35	Y35	Z35	
876	4.3800	-0.270361	1.420033	-0.561509	-0.235815	1.386897	-0.736656	-0.226731	1.395664	-0.386911	-0.159549	1.374832	-0.564320	-0.121626	0.989225	-0.471681	-0.117027	0.995565	-0.649548	-0.189620	1.035456	-0.426959	-0.182591	1.041725	-0.691908	-0.264997	1.023665	-0.502300	-0.263456	1.025426	-0.611941	-0.271927	1.036331	-0.560321	-0.218796	0.824912	-0.394102	-0.204993	0.767180	-0.384714	-0.141394	0.777288	-0.391488	-0.147004	0.837751	-0.401279	-0.242316	0.384692	-0.348410	-0.261926	0.345989	-0.346775	-0.207007	0.324929	-0.362662	-0.192831	0.362676	-0.367106	-0.347666	0.148855	-0.395409	-0.228311	0.042835	-0.337131	-0.194642	0.042339	-0.403389	-0.176102	0.027054	-0.396689	-0.206948	0.788116	-0.737675	-0.191060	0.728702	-0.741614	-0.127438	0.738973	-0.732321	-0.135641	0.798011	-0.728468	-0.273050	0.352346	-0.734549	-0.286619	0.314516	-0.729784	-0.227016	0.298711	-0.742052	-0.221143	0.342087	-0.745936	-0.329682	0.147849	-0.677594	-0.220249	0.034576	-0.740745	-0.178792	0.039615	-0.681165	-0.161875	0.027522	-0.691052	
877	4.3850	-0.270429	1.422830	-0.561450	-0.235844	1.390121	-0.736453	-0.226741	1.398709	-0.386944	-0.159633	1.377911	-0.564317	-0.121495	0.991860	-0.471607	-0.116796	0.998185	-0.649330	-0.189277	1.038347	-0.426947	-0.182230	1.044574	-0.691713	-0.264658	1.026747	-0.502266	-0.263061	1.028446	-0.611881	-0.271611	1.039394	-0.560275	-0.219367	0.827791	-0.394138	-0.205806	0.770003	-0.384710	-0.142148	0.779880	-0.391208	-0.147516	0.840372	-0.401038	-0.242835	0.386934	-0.348535	-0.262171	0.348157	-0.346999	-0.207027	0.327518	-0.362617	-0.193124	0.365324	-0.367124	-0.346106	0.150978	-0.395761	-0.227423	0.044199	-0.337682	-0.193597	0.043482	-0.403322	-0.175256	0.027612	-0.396515	-0.207421	0.790803	-0.737314	-0.191747	0.731325	-0.741266	-0.128066	0.741395	-0.732122	-0.136059	0.800456	-0.728260	-0.272889	0.354227	-0.734788	-0.286185	0.316282	-0.730182	-0.226417	0.300958	-0.742248	-0.220853	0.344386	-0.746000	-0.328214	0.149929	-0.678564	-0.219062	0.035812	-0.740435	-0.178091	0.040713	-0.681357	-0.161388	0.028461	-0.691414	
878	4.3900	-0.270470	1.425381	-0.561404	-0.235823	1.393035	-0.736300	-0.226751	1.401487	-0.386942	-0.159687	1.380713	-0.564309	-0.121400	0.994265	-0.471526	-0.116617	1.000556	-0.649142	-0.188982	1.040979	-0.426929	-0.181944	1.047147	-0.691541	-0.264387	1.029543	-0.502213	-0.262751	1.031173	-0.611810	-0.271355	1.042156	-0.560212	-0.219954	0.830355	-0.394147	-0.206591	0.772521	-0.384684	-0.142877	0.782230	-0.390944	-0.148046	0.842737	-0.400805	-0.243282	0.388973	-0.348690	-0.262372	0.350143	-0.347262	-0.207034	0.329871	-0.362652	-0.193366	0.367735	-0.367202	-0.344762	0.152938	-0.396210	-0.226578	0.045625	-0.338261	-0.192639	0.044660	-0.403325	-0.174452	0.028252	-0.396374	-0.207837	0.793197	-0.737008	-0.192344	0.733670	-0.740948	-0.128629	0.743560	-0.731853	-0.136443	0.802635	-0.727997	-0.272631	0.355954	-0.735044	-0.285710	0.317925	-0.730571	-0.225781	0.302983	-0.742318	-0.220466	0.346458	-0.745977	-0.326994	0.151804	-0.679408	-0.217837	0.037150	-0.740113	-0.177331	0.041997	-0.681409	-0.160778	0.029617	-0.691585	
879	4.3950	-0.270485	1.427700	-0.561365	-0.235750	1.395637	-0.736195	-0.226760	1.403979	-0.386920	-0.159711	1.383236	-0.564297	-0.121345	0.996444	-0.471434	-0.116495	1.002681	-0.648987	-0.188744	1.043361	-0.426905	-0.181735	1.049445	-0.691386	-0.264191	1.032033	-0.502140	-0.262529	1.033613	-0.611728	-0.271165	1.044630	-0.560131	-0.220545	0.832619	-0.394132	-0.207331	0.774746	-0.384642	-0.143572	0.784349	-0.390691	-0.148596	0.844863	-0.400581	-0.243657	0.390829	-0.348884	-0.262528	0.351947	-0.347562	-0.207029	0.331980	-0.362764	-0.193563	0.369911	-0.367338	-0.343615	0.154700	-0.396775	-0.225779	0.047101	-0.338852	-0.191781	0.045866	-0.403428	-0.173698	0.028999	-0.396302	-0.208181	0.795305	-0.736756	-0.192837	0.735732	-0.740661	-0.129104	0.745467	-0.731519	-0.136773	0.804552	-0.727680	-0.272300	0.357567	-0.735328	-0.285211	0.319462	-0.730941	-0.225137	0.304806	-0.742267	-0.220000	0.348323	-0.745871	-0.326025	0.153466	-0.680102	-0.216584	0.038583	-0.739768	-0.176520	0.043461	-0.681273	-0.160045	0.031000	-0.691507	
880	4.4000	-0.270471	1.429779	-0.561338	-0.235629	1.397931	-0.736136	-0.226765	1.406174	-0.386893	-0.159704	1.385478	-0.564279	-0.121336	0.998396	-0.471335	-0.116435	1.004556	-0.648861	-0.188572	1.045494	-0.426872	-0.181612	1.051457	-0.691242	-0.264066	1.034229	-0.502046	-0.262392	1.035763	-0.611635	-0.271038	1.046796	-0.560039	-0.221123	0.834596	-0.394100	-0.208013	0.776697	-0.384584	-0.144211	0.786243	-0.390454	-0.149149	0.846759	-0.400365	-0.243966	0.392497	-0.349118	-0.262645	0.353560	-0.347892	-0.207017	0.333844	-0.362950	-0.193718	0.371836	-0.367504	-0.342685	0.156258	-0.397407	-0.225036	0.048596	-0.339439	-0.191029	0.047095	-0.403652	-0.172994	0.029869	-0.396338	-0.208442	0.797129	-0.736559	-0.193220	0.737531	-0.740425	-0.129486	0.747126	-0.731119	-0.137038	0.806215	-0.727307	-0.271919	0.359082	-0.735613	-0.284711	0.320908	-0.731277	-0.224499	0.306440	-0.742103	-0.219482	0.349993	-0.745686	-0.325299	0.154911	-0.680640	-0.215280	0.040113	-0.739378	-0.175679	0.045068	-0.680908	-0.159206	0.032579	-0.691134	
881	4.4050	-0.270433	1.431624	-0.561325	-0.235483	1.399919	-0.736114	-0.226766	1.408073	-0.386874	-0.159731	1.387507	-0.564240	-0.121379	1.000122	-0.471224	-0.116434	1.006186	-0.648760	-0.188464	1.047378	-0.426832	-0.181574	1.053186	-0.691110	-0.264013	1.036121	-0.501937	-0.262340	1.037623	-0.611532	-0.270974	1.048666	-0.559934	-0.221674	0.836296	-0.394047	-0.208613	0.778402	-0.384509	-0.144787	0.787919	-0.390234	-0.149679	0.848435	-0.400163	-0.244207	0.393979	-0.349384	-0.262737	0.354978	-0.348253	-0.207008	0.335466	-0.363209	-0.193839	0.373520	-0.367709	-0.341974	0.157614	-0.398095	-0.224359	0.050093	-0.340008	-0.190377	0.048352	-0.404001	-0.172338	0.030875	-0.396512	-0.208607	0.798676	-0.736410	-0.193480	0.739066	-0.740220	-0.129766	0.748537	-0.730657	-0.137224	0.807634	-0.726883	-0.271502	0.360495	-0.735887	-0.284221	0.322269	-0.731556	-0.223885	0.307909	-0.741845	-0.218932	0.351482	-0.745432	-0.324797	0.156150	-0.681023	-0.213950	0.041698	-0.738917	-0.174847	0.046759	-0.680307	-0.158300	0.034311	-0.690471	
882	4.4100	-0.270372	1.433224	-0.561325	-0.235290	1.401603	-0.736127	-0.226756	1.409670	-0.386873	-0.159734	1.389260	-0.564196	-0.121474	1.001625	-0.471104	-0.116492	1.007575	-0.648679	-0.188426	1.049003	-0.426783	-0.181611	1.054643	-0.690986	-0.264029	1.037712	-0.501812	-0.262373	1.039191	-0.611418	-0.270968	1.050244	-0.559815	-0.222179	0.837740	-0.393980	-0.209130	0.779858	-0.384423	-0.145284	0.789394	-0.390029	-0.150169	0.849897	-0.399975	-0.244391	0.395259	-0.349680	-0.262810	0.356211	-0.348627	-0.207010	0.336852	-0.363530	-0.193938	0.374962	-0.367968	-0.341495	0.158770	-0.398842	-0.223753	0.051550	-0.340564	-0.189810	0.049629	-0.404455	-0.171730	0.032023	-0.396824	-0.208665	0.799969	-0.736306	-0.193603	0.740348	-0.740042	-0.129927	0.749718	-0.730146	-0.137320	0.808825	-0.726408	-0.271060	0.361817	-0.736143	-0.283753	0.323536	-0.731768	-0.223313	0.309218	-0.741501	-0.218372	0.352802	-0.745120	-0.324493	0.157194	-0.681259	-0.212616	0.043299	-0.738378	-0.174053	0.048485	-0.679496	-0.157369	0.036133	-0.689551	
883	4.4150	-0.270295	1.434587	-0.561337	-0.235054	1.402990	-0.736173	-0.226735	1.410963	-0.386895	-0.159714	1.390739	-0.564149	-0.121623	1.002903	-0.470977	-0.116609	1.008729	-0.648612	-0.188459	1.050367	-0.426723	-0.181741	1.055827	-0.690854	-0.264111	1.038993	-0.501671	-0.262487	1.040472	-0.611292	-0.271021	1.051538	-0.559680	-0.222621	0.838935	-0.393896	-0.209553	0.781068	-0.384322	-0.145695	0.790654	-0.389843	-0.150609	0.851145	-0.399798	-0.244521	0.396339	-0.350003	-0.262875	0.357260	-0.349015	-0.207031	0.337998	-0.363907	-0.194025	0.376153	-0.368271	-0.341230	0.159702	-0.399612	-0.223218	0.052951	-0.341113	-0.189316	0.050915	-0.404983	-0.171154	0.033296	-0.397240	-0.208603	0.801016	-0.736245	-0.193577	0.741379	-0.739888	-0.129954	0.750682	-0.729589	-0.137312	0.809797	-0.725884	-0.270615	0.363039	-0.736359	-0.283311	0.324698	-0.731906	-0.222779	0.310376	-0.741075	-0.217814	0.353952	-0.744748	-0.324361	0.158053	-0.681351	-0.211312	0.044873	-0.737755	-0.173313	0.050195	-0.678515	-0.156451	0.037978	-0.688429	
884	4.4200	-0.270204	1.435697	-0.561357	-0.234778	1.404083	-0.736247	-0.226714	1.411975	-0.386912	-0.159677	1.391944	-0.564101	-0.121819	1.003955	-0.470847	-0.116785	1.009652	-0.648552	-0.188554	1.051456	-0.426653	-0.181950	1.056750	-0.690712	-0.264252	1.039983	-0.501517	-0.262679	1.041461	-0.611152	-0.271133	1.052546	-0.559530	-0.222991	0.839885	-0.393796	-0.209874	0.782044	-0.384213	-0.146014	0.791694	-0.389683	-0.150983	0.852176	-0.399640	-0.244618	0.397211	-0.350347	-0.262947	0.358112	-0.349424	-0.207082	0.338916	-0.364324	-0.194105	0.377086	-0.368610	-0.341182	0.160414	-0.400380	-0.222764	0.054272	-0.341658	-0.188886	0.052206	-0.405547	-0.170606	0.034657	-0.397725	-0.208419	0.801823	-0.736224	-0.193397	0.742174	-0.739754	-0.129849	0.751445	-0.728988	-0.137204	0.810563	-0.725316	-0.270159	0.364109	-0.736487	-0.282903	0.325737	-0.731967	-0.222286	0.311371	-0.740579	-0.217271	0.354923	-0.744325	-0.324377	0.158738	-0.681319	-0.210076	0.046363	-0.737045	-0.172655	0.051832	-0.677413	-0.155592	0.039765	-0.687162	
